<svg width="37" height="37" viewBox="0 0 37 37" fill="none" xmlns="http://www.w3.org/2000/svg">
<path d="M19.5576 3.63684C21.2471 3.63963 22.1032 3.64857 22.843 3.67059L23.1343 3.68012C23.4709 3.69208 23.803 3.7071 24.2033 3.72586C25.8007 3.79966 26.8904 4.05237 27.8474 4.42391C28.8369 4.80545 29.6726 5.32087 30.5069 6.15527C31.3401 6.98967 31.8556 7.82784 32.2384 8.81487C32.6086 9.77061 32.8614 10.8615 32.9365 12.459C32.9543 12.8593 32.9687 13.1914 32.9806 13.528L32.99 13.8193C33.012 14.5591 33.022 15.4153 33.0252 17.1047L33.0264 18.2242C33.0265 18.3609 33.0265 18.502 33.0265 18.6476L33.0264 19.0711L33.0255 20.1906C33.0226 21.88 33.0138 22.7361 32.9917 23.4759L32.9821 23.7673C32.9702 24.1038 32.9552 24.4359 32.9365 24.8363C32.8626 26.4337 32.6086 27.5234 32.2384 28.4804C31.8568 29.4698 31.3401 30.3055 30.5069 31.1399C29.6726 31.973 28.8331 32.4885 27.8474 32.8713C26.8904 33.2415 25.8007 33.4943 24.2033 33.5694C23.803 33.5873 23.4709 33.6017 23.1343 33.6135L22.843 33.623C22.1032 33.6449 21.2471 33.655 19.5576 33.6581L18.4382 33.6593C18.3014 33.6595 18.1603 33.6595 18.0147 33.6595L17.5912 33.6593L16.4718 33.6584C14.7824 33.6556 13.9261 33.6467 13.1864 33.6246L12.8951 33.615C12.5584 33.6032 12.2264 33.5882 11.8261 33.5694C10.2285 33.4955 9.14018 33.2415 8.18193 32.8713C7.19365 32.4897 6.35674 31.973 5.52233 31.1399C4.68793 30.3055 4.17378 29.4661 3.79098 28.4804C3.41943 27.5234 3.16799 26.4337 3.09293 24.8363C3.07509 24.4359 3.06055 24.1038 3.04876 23.7673L3.03932 23.4759C3.01736 22.7361 3.00734 21.88 3.0041 20.1906L3.00391 17.1047C3.0067 15.4153 3.01563 14.5591 3.03765 13.8193L3.04719 13.528C3.05915 13.1914 3.07416 12.8593 3.09293 12.459C3.16672 10.8602 3.41943 9.77187 3.79098 8.81487C4.17252 7.82658 4.68793 6.98967 5.52233 6.15527C6.35674 5.32087 7.19491 4.80671 8.18193 4.42391C9.13894 4.05237 10.2273 3.80092 11.8261 3.72586C12.2264 3.70803 12.5584 3.69348 12.8951 3.6817L13.1864 3.67225C13.9261 3.65029 14.7824 3.64028 16.4718 3.63704L19.5576 3.63684ZM18.0147 11.1417C13.8671 11.1417 10.5088 14.5036 10.5088 18.6476C10.5088 22.7953 13.8707 26.1535 18.0147 26.1535C22.1623 26.1535 25.5206 22.7915 25.5206 18.6476C25.5206 14.5 22.1586 11.1417 18.0147 11.1417ZM18.0147 14.1441C20.502 14.1441 22.5183 16.1596 22.5183 18.6476C22.5183 21.135 20.5026 23.1512 18.0147 23.1512C15.5274 23.1512 13.5111 21.1356 13.5111 18.6476C13.5111 16.1603 15.5266 14.1441 18.0147 14.1441ZM25.8959 8.88993C24.8611 8.88993 24.0194 9.73044 24.0194 10.7651C24.0194 11.7998 24.8599 12.6416 25.8959 12.6416C26.9305 12.6416 27.7724 11.8011 27.7724 10.7651C27.7724 9.73044 26.9292 8.88862 25.8959 8.88993Z" fill="#3E4650"/>
</svg>
