<svg width="37" height="37" viewBox="0 0 37 37" fill="none" xmlns="http://www.w3.org/2000/svg">
<path d="M23.1222 32.0917V21.6351H26.6234L27.1474 17.57H23.1222V14.9747C23.1222 13.7978 23.4488 12.9957 25.1366 12.9957L27.2893 12.9947V9.35895C26.9169 9.3095 25.6392 9.19878 24.1526 9.19878C21.0489 9.19878 18.9243 11.0931 18.9243 14.5722V17.57H15.414V21.6351H18.9243V32.0917H6.00509C5.17602 32.0917 4.50391 31.4196 4.50391 30.5905V6.57162C4.50391 5.74254 5.17602 5.07043 6.00509 5.07043H30.024C30.8531 5.07043 31.5252 5.74254 31.5252 6.57162V30.5905C31.5252 31.4196 30.8531 32.0917 30.024 32.0917H23.1222Z" fill="#3E4650"/>
</svg>
